HIERARCHY
ROOT hip
{
  OFFSET 0 90.174 2.4664
  CHANNELS 6 Xposition Yposition Zposition Zrotation Xrotation Yrotation
  JOINT abdomen
  {
    OFFSET 0 -1.186 -1.5018
    CHANNELS 6 Xposition Yposition Zposition Zrotation Xrotation Yrotation
    JOINT abdomen2
    {
      OFFSET 0 9.964 0.2134
      CHANNELS 6 Xposition Yposition Zposition Zrotation Xrotation Yrotation
      JOINT chest
      {
        OFFSET 0 13.134 -3.2573
        CHANNELS 6 Xposition Yposition Zposition Zrotation Xrotation Yrotation
        JOINT neck
        {
          OFFSET 0 20.686 -1.6905
          CHANNELS 6 Xposition Yposition Zposition Zrotation Xrotation Yrotation
          JOINT head
          {
            OFFSET 0 7.238 -0.1237
            CHANNELS 6 Xposition Yposition Zposition Zrotation Xrotation Yrotation
            End Site
            {
              OFFSET 0 0 0
            }
          }
        }
        JOINT lCollar
        {
          OFFSET 1.7069 20.075 5.0056
          CHANNELS 6 Xposition Yposition Zposition Zrotation Xrotation Yrotation
          JOINT lShldr
          {
            OFFSET 13.6458 -0.047 -4.849
            CHANNELS 6 Xposition Yposition Zposition Zrotation Xrotation Yrotation
            JOINT lForeArm
            {
              OFFSET 28.3255 -0.9759 2.2888
              CHANNELS 6 Xposition Yposition Zposition Zrotation Xrotation Yrotation
              JOINT lHand
              {
                OFFSET 22.1583 -0.53 10.8316
                CHANNELS 6 Xposition Yposition Zposition Zrotation Xrotation Yrotation
                JOINT lThumb1
                {
                  OFFSET 0.786 0.112 2.5817
                  CHANNELS 6 Xposition Yposition Zposition Zrotation Xrotation Yrotation
                  JOINT lThumb2
                  {
                    OFFSET 0.3601 -0.878 4.2331
                    CHANNELS 6 Xposition Yposition Zposition Zrotation Xrotation Yrotation
                    JOINT lThumb2_End
                    {
                      OFFSET 1.8127 -1.216 2.2227
                      CHANNELS 6 Xposition Yposition Zposition Zrotation Xrotation Yrotation
                      End Site
                      {
                        OFFSET 0.0181 -0.0122 0.0222
                      }
                    }
                  }
                }
                JOINT lCarpal1
                {
                  OFFSET 0.9571 1.114 1.7695
                  CHANNELS 6 Xposition Yposition Zposition Zrotation Xrotation Yrotation
                  JOINT lIndex1
                  {
                    OFFSET 4.1246 0.487 4.1451
                    CHANNELS 6 Xposition Yposition Zposition Zrotation Xrotation Yrotation
                    JOINT lIndex2
                    {
                      OFFSET 3.4052 -1.454 2.7682
                      CHANNELS 6 Xposition Yposition Zposition Zrotation Xrotation Yrotation
                      JOINT lIndex2_End
                      {
                        OFFSET 1.4531 -1.795 1.2713
                        CHANNELS 6 Xposition Yposition Zposition Zrotation Xrotation Yrotation
                        End Site
                        {
                          OFFSET 0.0145 -0.0179 0.0127
                        }
                      }
                    }
                  }
                  JOINT lMid1
                  {
                    OFFSET 5.6954 0.21 2.1184
                    CHANNELS 6 Xposition Yposition Zposition Zrotation Xrotation Yrotation
                    JOINT lMid2
                    {
                      OFFSET 3.9766 -1.54 2.3863
                      CHANNELS 6 Xposition Yposition Zposition Zrotation Xrotation Yrotation
                      JOINT lMid2_End
                      {
                        OFFSET 1.4042 -1.926 1.125
                        CHANNELS 6 Xposition Yposition Zposition Zrotation Xrotation Yrotation
                        End Site
                        {
                          OFFSET 0.014 -0.0193 0.0113
                        }
                      }
                    }
                  }
                }
                JOINT lCarpal2
                {
                  OFFSET 2.0956 0.66 -0.3894
                  CHANNELS 6 Xposition Yposition Zposition Zrotation Xrotation Yrotation
                  JOINT lRing1
                  {
                    OFFSET 5.0395 -0.09 2.4971
                    CHANNELS 6 Xposition Yposition Zposition Zrotation Xrotation Yrotation
                    JOINT lRing2
                    {
                      OFFSET 3.7921 -1.552 1.4806
                      CHANNELS 6 Xposition Yposition Zposition Zrotation Xrotation Yrotation
                      JOINT lRing2_End
                      {
                        OFFSET 1.4655 -1.808 0.9609
                        CHANNELS 6 Xposition Yposition Zposition Zrotation Xrotation Yrotation
                        End Site
                        {
                          OFFSET 0.0147 -0.0181 0.0096
                        }
                      }
                    }
                  }
                  JOINT lPinky1
                  {
                    OFFSET 4.9141 -1.269 0.3591
                    CHANNELS 6 Xposition Yposition Zposition Zrotation Xrotation Yrotation
                    JOINT lPinky2
                    {
                      OFFSET 3.1477 -1.685 0.8462
                      CHANNELS 6 Xposition Yposition Zposition Zrotation Xrotation Yrotation
                      JOINT lPinky2_End
                      {
                        OFFSET 0.8055 -1.585 0.7955
                        CHANNELS 6 Xposition Yposition Zposition Zrotation Xrotation Yrotation
                        End Site
                        {
                          OFFSET 0.0081 -0.0158 0.008
                        }
                      }
                    }
                  }
                }
              }
            }
          }
        }
        JOINT rCollar
        {
          OFFSET -1.7069 20.075 5.0056
          CHANNELS 6 Xposition Yposition Zposition Zrotation Xrotation Yrotation
          JOINT rShldr
          {
            OFFSET -13.6458 -0.047 -4.849
            CHANNELS 6 Xposition Yposition Zposition Zrotation Xrotation Yrotation
            JOINT rForeArm
            {
              OFFSET -28.3255 -0.9759 2.2888
              CHANNELS 6 Xposition Yposition Zposition Zrotation Xrotation Yrotation
              JOINT rHand
              {
                OFFSET -22.1583 -0.53 10.8316
                CHANNELS 6 Xposition Yposition Zposition Zrotation Xrotation Yrotation
                JOINT rThumb1
                {
                  OFFSET -0.786 0.112 2.5817
                  CHANNELS 6 Xposition Yposition Zposition Zrotation Xrotation Yrotation
                  JOINT rThumb2
                  {
                    OFFSET -0.3601 -0.878 4.2331
                    CHANNELS 6 Xposition Yposition Zposition Zrotation Xrotation Yrotation
                    JOINT rThumb2_End
                    {
                      OFFSET -1.8127 -1.216 2.2227
                      CHANNELS 6 Xposition Yposition Zposition Zrotation Xrotation Yrotation
                      End Site
                      {
                        OFFSET -0.0181 -0.0122 0.0222
                      }
                    }
                  }
                }
                JOINT rCarpal1
                {
                  OFFSET -0.9571 1.114 1.7695
                  CHANNELS 6 Xposition Yposition Zposition Zrotation Xrotation Yrotation
                  JOINT rIndex1
                  {
                    OFFSET -4.1246 0.487 4.1451
                    CHANNELS 6 Xposition Yposition Zposition Zrotation Xrotation Yrotation
                    JOINT rIndex2
                    {
                      OFFSET -3.4052 -1.454 2.7682
                      CHANNELS 6 Xposition Yposition Zposition Zrotation Xrotation Yrotation
                      JOINT rIndex2_End
                      {
                        OFFSET -1.4531 -1.795 1.2713
                        CHANNELS 6 Xposition Yposition Zposition Zrotation Xrotation Yrotation
                        End Site
                        {
                          OFFSET -0.0145 -0.018 0.0127
                        }
                      }
                    }
                  }
                  JOINT rMid1
                  {
                    OFFSET -5.6954 0.21 2.1184
                    CHANNELS 6 Xposition Yposition Zposition Zrotation Xrotation Yrotation
                    JOINT rMid2
                    {
                      OFFSET -3.9766 -1.54 2.3863
                      CHANNELS 6 Xposition Yposition Zposition Zrotation Xrotation Yrotation
                      JOINT rMid2_End
                      {
                        OFFSET -1.4042 -1.926 1.125
                        CHANNELS 6 Xposition Yposition Zposition Zrotation Xrotation Yrotation
                        End Site
                        {
                          OFFSET -0.014 -0.0193 0.0113
                        }
                      }
                    }
                  }
                }
                JOINT rCarpal2
                {
                  OFFSET -2.0956 0.66 -0.3894
                  CHANNELS 6 Xposition Yposition Zposition Zrotation Xrotation Yrotation
                  JOINT rRing1
                  {
                    OFFSET -5.0395 -0.09 2.4971
                    CHANNELS 6 Xposition Yposition Zposition Zrotation Xrotation Yrotation
                    JOINT rRing2
                    {
                      OFFSET -3.7921 -1.552 1.4806
                      CHANNELS 6 Xposition Yposition Zposition Zrotation Xrotation Yrotation
                      JOINT rRing2_End
                      {
                        OFFSET -1.4655 -1.808 0.9609
                        CHANNELS 6 Xposition Yposition Zposition Zrotation Xrotation Yrotation
                        End Site
                        {
                          OFFSET -0.0147 -0.0181 0.0096
                        }
                      }
                    }
                  }
                  JOINT rPinky1
                  {
                    OFFSET -4.9141 -1.269 0.3592
                    CHANNELS 6 Xposition Yposition Zposition Zrotation Xrotation Yrotation
                    JOINT rPinky2
                    {
                      OFFSET -3.1477 -1.685 0.8462
                      CHANNELS 6 Xposition Yposition Zposition Zrotation Xrotation Yrotation
                      JOINT rPinky2_End
                      {
                        OFFSET -0.8055 -1.585 0.7955
                        CHANNELS 6 Xposition Yposition Zposition Zrotation Xrotation Yrotation
                        End Site
                        {
                          OFFSET -0.0081 -0.0158 0.008
                        }
                      }
                    }
                  }
                }
              }
            }
          }
        }
      }
    }
  }
  JOINT lThigh
  {
    OFFSET 8.367 -8.2066 0.5982
    CHANNELS 6 Xposition Yposition Zposition Zrotation Xrotation Yrotation
    JOINT lShin
    {
      OFFSET 2.1923 -43.463 -0.4932
      CHANNELS 6 Xposition Yposition Zposition Zrotation Xrotation Yrotation
      JOINT lFoot
      {
        OFFSET 0.7333 -45.8593 -2.6451
        CHANNELS 6 Xposition Yposition Zposition Zrotation Xrotation Yrotation
        End Site
        {
          OFFSET 2.6618 -4.2699 12.3931
        }
      }
    }
  }
  JOINT rThigh
  {
    OFFSET -8.367 -8.2066 0.5982
    CHANNELS 6 Xposition Yposition Zposition Zrotation Xrotation Yrotation
    JOINT rShin
    {
      OFFSET -2.1923 -43.463 -0.4931
      CHANNELS 6 Xposition Yposition Zposition Zrotation Xrotation Yrotation
      JOINT rFoot
      {
        OFFSET -0.7333 -45.8593 -2.6451
        CHANNELS 6 Xposition Yposition Zposition Zrotation Xrotation Yrotation
        End Site
        {
          OFFSET -2.6618 -4.2699 12.3931
        }
      }
    }
  }
}
MOTION
Frames:	4
Frame Time:	0.0333333
-0.00741811 6.16879 -7.25411 -0 -82.0004 -0 0 -1.186 -1.5018 -0.0104387 -4.68228 -0.153573 0 9.964 0.2134 -0.0336886 -9.36453 -0.309565 0 13.134 -3.2573 -0.0336887 -9.36455 -0.309565 0 20.686 -1.6905 -7.33031 30.1265 -1.3071 8.88178e-016 7.238 -0.1237 14.9913 -10.9818 6.05854 1.7069 20.075 5.0056 -14.3986 19.7711 8.4329 13.6458 -0.047 -4.849 -69.5168 -6.20014 -47.7792 28.3255 -0.9759 2.2888 -13.2669 36.5865 17.0624 22.1583 -0.53 10.8316 -46.7303 -7.08255 14.0079 0.786 0.112 2.5817 -3.18055e-015 -1.78906e-015 -3.97569e-015 0.3601 -0.878 4.2331 -1.06666e-007 1.82077e-006 1.76984e-006 1.8127 -1.216 2.2227 -6.36111e-015 -1.78906e-015 2.78299e-015 0.9571 1.114 1.7695 -3.18055e-015 -1.98785e-015 -3.97569e-015 4.1246 0.487 4.1451 -3.18055e-015 1.17283e-014 1.19271e-014 3.4052 -1.454 2.7682 -1.06666e-007 1.82077e-006 1.76984e-006 1.4531 -1.795 1.2713 -3.18055e-015 -4.57205e-015 -0 5.6954 0.21 2.1184 -3.18055e-015 1.17283e-014 1.19271e-014 3.9766 -1.54 2.3863 -1.06666e-007 1.82077e-006 1.76984e-006 1.4042 -1.926 1.125 -3.18055e-015 -4.57205e-015 -0 2.0956 0.66 -0.3894 -3.18055e-015 -1.98785e-015 -3.97569e-015 5.0395 -0.09 2.4971 -3.18055e-015 1.17283e-014 1.19271e-014 3.7921 -1.552 1.4806 -1.06666e-007 1.82077e-006 1.76984e-006 1.4655 -1.808 0.9609 -3.18055e-015 -4.57205e-015 -0 4.9141 -1.269 0.3591 -3.18055e-015 1.17283e-014 1.19271e-014 3.1477 -1.685 0.8462 -1.06666e-007 1.82077e-006 1.76984e-006 0.8055 -1.585 0.7955 -3.18055e-015 -4.57205e-015 -0 -1.7069 20.075 5.0056 14.2715 19.6885 -8.5983 -13.6458 -0.047 -4.849 69.6914 -5.98386 48.5317 -28.3255 -0.9759 2.2888 11.3459 36.7433 -17.2084 -22.1583 -0.53 10.8316 46.7422 -6.48091 -14.4197 -0.786 0.112 2.5817 2.36406e-006 1.83227e-006 -1.49283e-006 -0.3601 -0.878 4.2331 6.93528e-007 -3.12233e-006 2.77839e-006 -1.8127 -1.216 2.2227 -6.93528e-007 3.12233e-006 -2.77839e-006 -0.9571 1.114 1.7695 -2.40006e-031 5.76476e-015 2.38542e-015 -4.1246 0.487 4.1451 2.36406e-006 1.83227e-006 -1.49283e-006 -3.4052 -1.454 2.7682 6.93528e-007 -3.12233e-006 2.77839e-006 -1.4531 -1.795 1.2713 -6.93528e-007 3.12233e-006 -2.77839e-006 -5.6954 0.21 2.1184 2.36406e-006 1.83227e-006 -1.49283e-006 -3.9766 -1.54 2.3863 6.93528e-007 -3.12233e-006 2.77839e-006 -1.4042 -1.926 1.125 -6.93528e-007 3.12233e-006 -2.77839e-006 -2.0956 0.66 -0.3894 -2.40006e-031 5.76476e-015 2.38542e-015 -5.0395 -0.09 2.4971 2.36406e-006 1.83227e-006 -1.49283e-006 -3.7921 -1.552 1.4806 6.93528e-007 -3.12233e-006 2.77839e-006 -1.4655 -1.808 0.9609 -6.93528e-007 3.12233e-006 -2.77839e-006 -4.9141 -1.269 0.3592 2.36406e-006 1.83227e-006 -1.49283e-006 -3.1477 -1.685 0.8462 6.93528e-007 -3.12233e-006 2.77839e-006 -0.8055 -1.585 0.7955 -6.93528e-007 3.12233e-006 -2.77839e-006 8.367 -8.2066 0.5982 16.2921 -16.483 47.5608 2.1923 -43.463 -0.4932 2.01145 45.0399 0.790151 0.7333 -45.8593 -2.6451 2.69224 19.8237 1.66205 -8.367 -8.2066 0.5982 -15.3541 -17.1919 -45.2608 -2.1923 -43.463 -0.4931 -2.01702 45.0825 -0.812734 -0.7333 -45.8593 -2.6451 -0.947261 19.8803 -4.07211 
-0.0071036 6.09516 -7.25706 -0 -82.0004 -0 0 -1.186 -1.5018 -0.0108738 -4.59711 -0.153561 -1.30104e-018 9.964 0.2134 -0.0343218 -9.19422 -0.309504 -6.93889e-018 13.134 -3.2573 -0.0343217 -9.19422 -0.309504 1.38778e-017 20.686 -1.6905 -7.33024 30.1256 -1.30711 -8.88178e-016 7.238 -0.1237 15.0534 -10.8255 6.07347 1.7069 20.075 5.0056 -14.4635 19.4733 8.18987 13.6458 -0.047 -4.849 -69.417 -6.32838 -47.7364 28.3255 -0.9759 2.2888 -13.2516 36.5859 17.0655 22.1583 -0.53 10.8316 -46.7303 -7.08256 14.0079 0.786 0.112 2.5817 -3.18055e-015 -8.94531e-015 -1.19271e-015 0.3601 -0.878 4.2331 3.18055e-015 -5.1684e-015 3.97569e-016 1.8127 -1.216 2.2227 3.18055e-015 -7.35503e-015 7.95139e-016 0.9571 1.114 1.7695 -3.18055e-015 -2.5842e-015 -1.19271e-015 4.1246 0.487 4.1451 3.18055e-015 -1.25234e-014 -3.97569e-016 3.4052 -1.454 2.7682 3.18055e-015 -7.95139e-015 7.95139e-016 1.4531 -1.795 1.2713 2.70352e-031 -5.56597e-015 2.78299e-015 5.6954 0.21 2.1184 3.18055e-015 -1.25234e-014 -3.97569e-016 3.9766 -1.54 2.3863 3.18055e-015 -7.95139e-015 7.95139e-016 1.4042 -1.926 1.125 2.70352e-031 -5.56597e-015 2.78299e-015 2.0956 0.66 -0.3894 -3.18055e-015 -2.5842e-015 -1.19271e-015 5.0395 -0.09 2.4971 3.18055e-015 -1.25234e-014 -3.97569e-016 3.7921 -1.552 1.4806 3.18055e-015 -7.95139e-015 7.95139e-016 1.4655 -1.808 0.9609 2.70352e-031 -5.56597e-015 2.78299e-015 4.9141 -1.269 0.3591 3.18055e-015 -1.25234e-014 -3.97569e-016 3.1477 -1.685 0.8462 3.18055e-015 -7.95139e-015 7.95139e-016 0.8055 -1.585 0.7955 2.70352e-031 -5.56597e-015 2.78299e-015 -1.7069 20.075 5.0056 14.3427 19.3946 -8.34689 -13.6458 -0.047 -4.849 69.5899 -6.11551 48.489 -28.3255 -0.9759 2.2888 11.346 36.7433 -17.2084 -22.1583 -0.53 10.8316 46.7422 -6.48091 -14.4197 -0.786 0.112 2.5817 4.64369e-006 3.5589e-006 4.71422e-007 -0.3601 -0.878 4.2331 2.65491e-006 4.01409e-006 -5.3889e-007 -1.8127 -1.216 2.2227 -6.36111e-015 3.57812e-015 -2.78299e-015 -0.9571 1.114 1.7695 6.36111e-015 4.96962e-015 7.95139e-016 -4.1246 0.487 4.1451 4.64369e-006 3.5589e-006 4.71422e-007 -3.4052 -1.454 2.7682 2.65491e-006 4.01409e-006 -5.3889e-007 -1.4531 -1.795 1.2713 -6.36111e-015 6.16232e-015 1.19271e-015 -5.6954 0.21 2.1184 4.64369e-006 3.5589e-006 4.71422e-007 -3.9766 -1.54 2.3863 2.65491e-006 4.01409e-006 -5.3889e-007 -1.4042 -1.926 1.125 -6.36111e-015 6.16232e-015 1.19271e-015 -2.0956 0.66 -0.3894 6.36111e-015 4.96962e-015 7.95139e-016 -5.0395 -0.09 2.4971 4.64369e-006 3.5589e-006 4.71422e-007 -3.7921 -1.552 1.4806 2.65491e-006 4.01409e-006 -5.3889e-007 -1.4655 -1.808 0.9609 -6.36111e-015 6.16232e-015 1.19271e-015 -4.9141 -1.269 0.3592 4.64369e-006 3.5589e-006 4.71422e-007 -3.1477 -1.685 0.8462 2.65491e-006 4.01409e-006 -5.3889e-007 -0.8055 -1.585 0.7955 -6.36111e-015 6.16232e-015 1.19271e-015 8.367 -8.2066 0.5982 16.3765 -16.5328 47.7731 2.1923 -43.463 -0.4932 2.01131 45.039 0.788917 0.7333 -45.8593 -2.6451 2.85448 19.838 1.48725 -8.367 -8.2066 0.5982 -15.4894 -17.2084 -45.5953 -2.1923 -43.463 -0.4931 -2.01679 45.0796 -0.810721 -0.7333 -45.8593 -2.6451 -1.20157 19.8986 -3.77029 
-0.00677861 6.02154 -7.26 -0 -82.0004 -0 0 -1.186 -1.5018 -0.0113088 -4.51197 -0.153548 -1.73472e-018 9.964 0.2134 -0.0349543 -9.02386 -0.309439 -6.93889e-018 13.134 -3.2573 -0.0349544 -9.02389 -0.30944 -6.93889e-018 20.686 -1.6905 -7.33028 30.1262 -1.30712 0 7.238 -0.1237 15.1155 -10.6692 6.08822 1.7069 20.075 5.0056 -14.5295 19.1756 7.94693 13.6458 -0.047 -4.849 -69.3171 -6.45654 -47.6934 28.3255 -0.9759 2.2888 -13.2361 36.5853 17.0686 22.1583 -0.53 10.8316 -46.7303 -7.08255 14.0079 0.786 0.112 2.5817 -6.36111e-015 -3.37934e-015 -2.38542e-015 0.3601 -0.878 4.2331 -2.59229e-006 -1.82129e-006 -2.14874e-006 1.8127 -1.216 2.2227 -4.74085e-007 2.40138e-006 -8.85724e-007 0.9571 1.114 1.7695 -6.36111e-015 -3.37934e-015 -3.97569e-015 4.1246 0.487 4.1451 6.36111e-015 -1.39149e-014 1.59028e-015 3.4052 -1.454 2.7682 -2.59229e-006 -1.82129e-006 -2.14874e-006 1.4531 -1.795 1.2713 -4.74085e-007 2.40138e-006 -8.85724e-007 5.6954 0.21 2.1184 6.36111e-015 -1.39149e-014 1.59028e-015 3.9766 -1.54 2.3863 -2.59229e-006 -1.82129e-006 -2.14874e-006 1.4042 -1.926 1.125 -4.74085e-007 2.40138e-006 -8.85724e-007 2.0956 0.66 -0.3894 -6.36111e-015 -3.37934e-015 -3.97569e-015 5.0395 -0.09 2.4971 6.36111e-015 -1.39149e-014 1.59028e-015 3.7921 -1.552 1.4806 -2.59229e-006 -1.82129e-006 -2.14874e-006 1.4655 -1.808 0.9609 -4.74085e-007 2.40138e-006 -8.85724e-007 4.9141 -1.269 0.3591 6.36111e-015 -1.39149e-014 1.59028e-015 3.1477 -1.685 0.8462 -2.59229e-006 -1.82129e-006 -2.14874e-006 0.8055 -1.585 0.7955 -4.74085e-007 2.40138e-006 -8.85724e-007 -1.7069 20.075 5.0056 14.4152 19.101 -8.09556 -13.6458 -0.047 -4.849 69.4883 -6.24712 48.446 -28.3255 -0.9759 2.2888 11.346 36.7433 -17.2084 -22.1583 -0.53 10.8316 46.7422 -6.48091 -14.4197 -0.786 0.112 2.5817 -3.18055e-015 -9.93923e-016 -3.57812e-015 -0.3601 -0.878 4.2331 -3.18055e-015 4.17448e-015 -1.19271e-015 -1.8127 -1.216 2.2227 -6.36111e-015 -9.44227e-015 -1.98785e-015 -0.9571 1.114 1.7695 3.18055e-015 -1.09332e-015 -3.97569e-016 -4.1246 0.487 4.1451 3.18055e-015 -1.96797e-014 4.77083e-015 -3.4052 -1.454 2.7682 1.24141e-031 -8.94531e-015 7.95139e-016 -1.4531 -1.795 1.2713 -6.36111e-015 1.68967e-015 -3.18055e-015 -5.6954 0.21 2.1184 3.18055e-015 -1.96797e-014 4.77083e-015 -3.9766 -1.54 2.3863 1.24141e-031 -8.94531e-015 7.95139e-016 -1.4042 -1.926 1.125 -6.36111e-015 1.68967e-015 -3.18055e-015 -2.0956 0.66 -0.3894 3.18055e-015 -1.09332e-015 -3.97569e-016 -5.0395 -0.09 2.4971 3.18055e-015 -1.96797e-014 4.77083e-015 -3.7921 -1.552 1.4806 1.24141e-031 -8.94531e-015 7.95139e-016 -1.4655 -1.808 0.9609 -6.36111e-015 1.68967e-015 -3.18055e-015 -4.9141 -1.269 0.3592 3.18055e-015 -1.96797e-014 4.77083e-015 -3.1477 -1.685 0.8462 1.24141e-031 -8.94531e-015 7.95139e-016 -0.8055 -1.585 0.7955 -6.36111e-015 1.68967e-015 -3.18055e-015 8.367 -8.2066 0.5982 16.461 -16.5822 47.9854 2.1923 -43.463 -0.4932 2.01116 45.038 0.78763 0.7333 -45.8593 -2.6451 3.01678 19.852 1.31241 -8.367 -8.2066 0.5982 -15.6248 -17.2241 -45.9299 -2.1923 -43.463 -0.4931 -2.01653 45.0766 -0.80864 -0.7333 -45.8593 -2.6451 -1.45601 19.9157 -3.46841 
-0.00644543 5.94791 -7.26291 -0 -82.0004 -0 0 -1.186 -1.5018 -0.0117432 -4.42681 -0.153532 0 9.964 0.2134 -0.0355859 -8.85358 -0.30937 -6.93889e-018 13.134 -3.2573 -0.0355858 -8.85357 -0.30937 -6.93889e-018 20.686 -1.6905 -7.33026 30.1257 -1.30712 0 7.238 -0.1237 15.1774 -10.5129 6.10279 1.7069 20.075 5.0056 -14.5968 18.8783 7.70408 13.6458 -0.047 -4.849 -69.2171 -6.58465 -47.6502 28.3255 -0.9759 2.2888 -13.2207 36.5847 17.0717 22.1583 -0.53 10.8316 -46.7303 -7.08254 14.0079 0.786 0.112 2.5817 -3.18055e-015 -2.38542e-015 7.95139e-016 0.3601 -0.878 4.2331 -3.18055e-015 -5.1684e-015 -3.97569e-016 1.8127 -1.216 2.2227 -6.36111e-015 -8.15017e-015 2.78299e-015 0.9571 1.114 1.7695 -3.18055e-015 4.17448e-015 7.95139e-016 4.1246 0.487 4.1451 -3.18055e-015 -1.53064e-014 -5.1684e-015 3.4052 -1.454 2.7682 -6.36111e-015 -7.95139e-015 -3.18055e-015 1.4531 -1.795 1.2713 -3.18055e-015 -8.34896e-015 1.59028e-015 5.6954 0.21 2.1184 -3.18055e-015 -1.53064e-014 -5.1684e-015 3.9766 -1.54 2.3863 -6.36111e-015 -7.95139e-015 -3.18055e-015 1.4042 -1.926 1.125 -3.18055e-015 -8.34896e-015 1.59028e-015 2.0956 0.66 -0.3894 -3.18055e-015 4.17448e-015 7.95139e-016 5.0395 -0.09 2.4971 -3.18055e-015 -1.53064e-014 -5.1684e-015 3.7921 -1.552 1.4806 -6.36111e-015 -7.95139e-015 -3.18055e-015 1.4655 -1.808 0.9609 -3.18055e-015 -8.34896e-015 1.59028e-015 4.9141 -1.269 0.3591 -3.18055e-015 -1.53064e-014 -5.1684e-015 3.1477 -1.685 0.8462 -6.36111e-015 -7.95139e-015 -3.18055e-015 0.8055 -1.585 0.7955 -3.18055e-015 -8.34896e-015 1.59028e-015 -1.7069 20.075 5.0056 14.4889 18.8078 -7.84431 -13.6458 -0.047 -4.849 69.3865 -6.37862 48.4028 -28.3255 -0.9759 2.2888 11.3459 36.7433 -17.2084 -22.1583 -0.53 10.8316 46.7422 -6.48091 -14.4197 -0.786 0.112 2.5817 2.36065e-006 1.83708e-006 -1.49672e-006 -0.3601 -0.878 4.2331 3.18055e-015 -4.37326e-015 3.57812e-015 -1.8127 -1.216 2.2227 2.36065e-006 1.83708e-006 -1.49672e-006 -0.9571 1.114 1.7695 -3.18055e-015 -6.85807e-015 5.96354e-015 -4.1246 0.487 4.1451 2.36065e-006 1.83708e-006 -1.49672e-006 -3.4052 -1.454 2.7682 4.62081e-032 -6.65929e-015 3.97569e-016 -1.4531 -1.795 1.2713 2.36065e-006 1.83708e-006 -1.49672e-006 -5.6954 0.21 2.1184 2.36065e-006 1.83708e-006 -1.49672e-006 -3.9766 -1.54 2.3863 4.62081e-032 -6.65929e-015 3.97569e-016 -1.4042 -1.926 1.125 2.36065e-006 1.83708e-006 -1.49672e-006 -2.0956 0.66 -0.3894 -3.18055e-015 -6.85807e-015 5.96354e-015 -5.0395 -0.09 2.4971 2.36065e-006 1.83708e-006 -1.49672e-006 -3.7921 -1.552 1.4806 4.62081e-032 -6.65929e-015 3.97569e-016 -1.4655 -1.808 0.9609 2.36065e-006 1.83708e-006 -1.49672e-006 -4.9141 -1.269 0.3592 2.36065e-006 1.83708e-006 -1.49672e-006 -3.1477 -1.685 0.8462 4.62081e-032 -6.65929e-015 3.97569e-016 -0.8055 -1.585 0.7955 2.36065e-006 1.83708e-006 -1.49672e-006 8.367 -8.2066 0.5982 16.5457 -16.6314 48.198 2.1923 -43.463 -0.4932 2.01101 45.037 0.786383 0.7333 -45.8593 -2.6451 3.17916 19.8654 1.13753 -8.367 -8.2066 0.5982 -15.7603 -17.2389 -46.2645 -2.1923 -43.463 -0.4931 -2.01623 45.0734 -0.806562 -0.7333 -45.8593 -2.6451 -1.71059 19.9317 -3.16645 
